<svg width="743" height="1177" viewBox="0 0 743 1177" fill="none" xmlns="http://www.w3.org/2000/svg">
<path d="M351 378.07C462.451 367.725 502.478 324.226 546.5 200.57C585.893 63.9605 588.642 24.2654 562.5 13.0699C510.685 4.18539 486.335 9.89321 444 22.5699C345.871 6.96114 302.568 7.16673 245 22.5699C159.026 2.00286 126.001 1.37809 112 32.5699C122.386 133.232 128.926 187.517 180 287.57C226.437 354.976 262.629 376.76 351 378.07Z" fill="#EFCFA9"/>
<path d="M373.229 954.935C449.071 1104.45 487.949 1194.04 595.729 1154.44C622.695 1102.99 603.122 1051.77 559.729 954.935C578.334 807.116 579.666 727.776 559.729 594.935C577.469 495.848 608.003 461.865 670.729 409.935C743.169 330.561 754.251 293.714 706.729 245.435C647.642 222.226 583.641 262.053 497 328C430.537 392.637 412.982 377.047 350.5 392.5L237.5 365.5C218.328 345.422 195.027 353.806 141.5 387.5C60.5827 458.632 35.5662 544.001 8.5 735.5C25.2548 777.972 54.7974 783.73 138 760.27C136.592 738.915 140.502 752.966 151 756.5C146.527 757.83 142.195 759.088 138 760.27C139.356 780.833 145.643 834.222 155.73 961.435C87.6042 1074.66 82.9886 1132.76 161.23 1168.44C230.727 1162.1 269.406 1115.1 337.729 961.435L373.229 954.935Z" fill="#EFCFA9"/>
<path d="M138 760.27C54.7974 783.73 25.2548 777.972 8.5 735.5C35.5662 544.001 60.5827 458.632 141.5 387.5C195.027 353.806 218.328 345.422 237.5 365.5L350.5 392.5C412.982 377.047 430.537 392.637 497 328C583.641 262.053 647.642 222.226 706.729 245.435C754.251 293.714 743.169 330.561 670.729 409.935C608.003 461.865 577.469 495.848 559.729 594.935C579.666 727.776 578.334 807.116 559.729 954.935C603.122 1051.77 622.695 1102.99 595.729 1154.44C487.949 1194.04 449.071 1104.45 373.229 954.935L337.729 961.435C269.406 1115.1 230.727 1162.1 161.23 1168.44C82.9886 1132.76 87.6042 1074.66 155.73 961.435C145.643 834.222 139.356 780.833 138 760.27ZM138 760.27C136.592 738.915 140.502 752.966 151 756.5C146.527 757.83 142.195 759.088 138 760.27ZM351 378.07C462.451 367.725 502.478 324.226 546.5 200.57C585.893 63.9605 588.642 24.2654 562.5 13.0699C510.685 4.18539 486.335 9.89321 444 22.5699C345.871 6.96114 302.568 7.16673 245 22.5699C159.026 2.00286 126.001 1.37809 112 32.5699C122.386 133.232 128.926 187.517 180 287.57C226.437 354.976 262.629 376.76 351 378.07Z" stroke="#EFCFA9" stroke-width="15"/>
</svg>
