<svg width="770" height="1173" viewBox="0 0 770 1173" fill="none" xmlns="http://www.w3.org/2000/svg">
<path d="M388 378.07C499.451 367.725 539.478 324.226 583.5 200.57C622.893 63.9605 625.642 24.2654 599.5 13.0699C547.685 4.18539 523.335 9.89321 481 22.5699C382.871 6.96114 339.568 7.16673 282 22.5699C196.026 2.00286 163.001 1.37809 149 32.5699C159.386 133.232 165.926 187.517 217 287.57C263.437 354.976 299.629 376.76 388 378.07Z" fill="#EFCFA9"/>
<path d="M406.229 950.935C482.071 1100.45 520.949 1190.04 628.729 1150.44C655.695 1098.99 636.122 1047.77 592.729 950.935C611.334 803.116 612.666 723.776 592.729 590.935C634.188 736.676 666.088 783.508 756.5 732C769.47 735.687 757.386 656.897 730 492C663.972 370.348 622.302 346.844 546.729 316.935C480.266 381.572 445.211 380.982 382.729 396.435C269.453 380.356 233.79 350.264 188.229 282.935C84.4206 216.738 46.5312 219.69 8.22867 282.935C3.74968 318.503 65.2637 391.035 175.542 519.876C176.007 517.112 177.765 519.405 180.729 525.935C178.988 523.902 177.259 521.882 175.542 519.876C174.463 526.285 180.334 559.89 194.229 630.935C173.624 623.999 168.169 698.105 188.729 957.435C120.604 1070.66 115.989 1128.76 194.229 1164.44C263.727 1158.1 302.406 1111.1 370.729 957.435L406.229 950.935Z" fill="#EFCFA9"/>
<path d="M175.542 519.876C65.2637 391.035 3.74968 318.503 8.22867 282.935C46.5312 219.69 84.4206 216.738 188.229 282.935C233.79 350.264 269.453 380.356 382.729 396.435C445.211 380.982 480.266 381.572 546.729 316.935C622.302 346.844 663.972 370.348 730 492C757.386 656.897 769.47 735.687 756.5 732C666.088 783.508 634.188 736.676 592.729 590.935C612.666 723.776 611.334 803.116 592.729 950.935C636.122 1047.77 655.695 1098.99 628.729 1150.44C520.949 1190.04 482.071 1100.45 406.229 950.935L370.729 957.435C302.406 1111.1 263.727 1158.1 194.229 1164.44C115.989 1128.76 120.604 1070.66 188.729 957.435C168.169 698.105 173.624 623.999 194.229 630.935C180.334 559.89 174.463 526.285 175.542 519.876ZM175.542 519.876C176.007 517.112 177.765 519.405 180.729 525.935C178.988 523.902 177.259 521.882 175.542 519.876ZM388 378.07C499.451 367.725 539.478 324.226 583.5 200.57C622.893 63.9605 625.642 24.2654 599.5 13.0699C547.685 4.18539 523.335 9.89321 481 22.5699C382.871 6.96114 339.568 7.16673 282 22.5699C196.026 2.00286 163.001 1.37809 149 32.5699C159.386 133.232 165.926 187.517 217 287.57C263.437 354.976 299.629 376.76 388 378.07Z" stroke="#EFCFA9" stroke-width="15"/>
</svg>
