<svg width="777" height="1174" viewBox="0 0 777 1174" fill="none" xmlns="http://www.w3.org/2000/svg">
<path d="M386.533 377.776C497.985 367.431 538.011 323.932 582.033 200.276C621.426 63.6666 624.176 23.9715 598.033 12.7759C546.219 3.89144 521.868 9.59926 479.533 22.2759C381.404 6.6672 338.102 6.87278 280.533 22.2759C194.559 1.70891 161.534 1.08415 147.533 32.2759C157.92 132.938 164.459 187.223 215.533 287.276C261.971 354.682 298.162 376.466 386.533 377.776Z" fill="#DF9F53"/>
<path d="M406.532 952.776C482.375 1102.29 521.253 1191.88 629.032 1152.28C655.999 1100.83 636.426 1049.61 593.032 952.776C611.637 804.957 612.969 725.617 593.032 592.776C610.773 493.689 641.307 459.706 704.032 407.776C776.472 328.402 787.554 291.555 740.032 243.276C680.946 220.067 633.673 252.829 547.032 318.776C480.57 383.413 445.514 382.823 383.032 398.276C269.757 382.197 234.094 352.105 188.532 284.776C84.7243 218.578 46.8349 221.531 8.53238 284.776C3.98365 320.898 67.4991 395.144 181.032 527.776C171.195 506.104 174.645 531.094 194.533 632.776C173.927 625.84 168.472 699.946 189.033 959.276C120.908 1072.5 116.292 1130.6 194.533 1166.28C264.031 1159.94 302.71 1112.94 371.033 959.276L406.532 952.776Z" fill="#DF9F53"/>
<path d="M386.533 377.776C497.985 367.431 538.011 323.932 582.033 200.276C621.426 63.6666 624.176 23.9715 598.033 12.7759C546.219 3.89144 521.868 9.59926 479.533 22.2759C381.404 6.6672 338.102 6.87278 280.533 22.2759C194.559 1.70891 161.534 1.08415 147.533 32.2759C157.92 132.938 164.459 187.223 215.533 287.276C261.971 354.682 298.162 376.466 386.533 377.776Z" stroke="#DF9F53" stroke-width="15"/>
<path d="M406.532 952.776C482.375 1102.29 521.253 1191.88 629.032 1152.28C655.999 1100.83 636.426 1049.61 593.032 952.776C611.637 804.957 612.969 725.617 593.032 592.776C610.773 493.689 641.307 459.706 704.032 407.776C776.472 328.402 787.554 291.555 740.032 243.276C680.946 220.067 633.673 252.829 547.032 318.776C480.57 383.413 445.514 382.823 383.032 398.276C269.757 382.197 234.094 352.105 188.532 284.776C84.7243 218.578 46.8349 221.531 8.53238 284.776C3.98365 320.898 67.4991 395.144 181.032 527.776C171.195 506.104 174.645 531.094 194.533 632.776C173.927 625.84 168.472 699.946 189.033 959.276C120.908 1072.5 116.292 1130.6 194.533 1166.28C264.031 1159.94 302.71 1112.94 371.033 959.276L406.532 952.776Z" stroke="#DF9F53" stroke-width="15"/>
</svg>
