<svg width="174" height="371" viewBox="0 0 174 371" fill="none" xmlns="http://www.w3.org/2000/svg">
<path d="M78.1724 4.71086C78.2531 4.5984 78.5559 4.7082 78.6953 4.63356C79.2989 4.31567 79.6208 4.32554 80.2788 4.08484C81.0693 3.55816 84.9733 2.53515 84.8314 4.51075C84.8314 4.51079 84.8314 4.51084 84.8314 4.51088C84.8315 4.52855 84.8312 4.54643 84.8307 4.56452C84.8173 4.90705 84.5888 5.28613 84.5763 5.67619C84.5648 6.06597 84.6599 8.56921 84.5205 8.72176C84.3273 8.90822 83.6344 8.42669 83.4684 8.5304C83.378 8.58577 83.349 8.84488 83.2457 8.93791C82.9094 9.24296 82.5899 9.23968 82.5234 10.0116C82.1927 9.83467 81.8453 9.67228 81.4928 9.51599C81.3537 9.79114 80.7691 9.67315 80.64 9.79277C80.5389 9.88735 80.6174 10.1477 80.5061 10.2408C80.3817 10.3468 80.014 10.266 79.7904 10.4762C79.4232 10.8195 79.7387 11.421 79.5436 11.6633C79.3345 11.9193 78.7309 11.8958 78.5312 12.3218C78.5323 12.4111 78.533 12.5006 78.5334 12.5903C78.6583 12.7076 78.7833 12.8248 78.9082 12.9421C78.7864 13.1209 78.5133 12.8921 78.3584 12.9907C78.2165 13.0808 78.2347 13.2982 78.1934 13.4328C78.1791 13.4749 78.16 13.5088 78.1299 13.5287C78.0231 13.5989 77.749 13.4681 77.646 13.5581C77.4984 13.6863 77.7504 13.9706 77.7114 14.0838C77.6889 14.1271 77.2777 14.697 77.2456 14.7325C77.0192 14.9348 76.6632 14.5616 76.4369 14.6954C75.7954 15.0849 75.484 15.9518 75.0706 16.5741C74.879 16.859 74.6164 17.0766 74.3227 17.2538C73.7585 15.9512 72.2067 16.0524 73.9809 17.1976C73.4987 17.266 73.7235 17.8324 73.4019 18.0268C73.2025 18.1431 72.881 18.0629 72.6561 18.3065C72.2619 18.7362 72.4107 19.761 71.2221 18.8765C70.9389 19.5516 70.1307 19.634 70.9109 20.7011C70.8448 20.8877 69.965 20.697 69.7534 20.7705C69.5493 20.8433 68.2966 21.6852 68.1213 21.8486C67.9484 22.0079 67.6473 22.3054 67.5907 22.5363C67.5201 22.8227 68.4063 23.8495 66.9342 23.1273C66.6643 23.6136 66.5176 23.7083 66.0508 23.9512C65.9664 23.9951 65.7862 23.8459 65.7509 23.8846C65.6794 23.9636 65.6793 24.2213 65.5692 24.3747C65.3898 24.6249 64.9042 24.429 65.4858 24.906C65.4419 25.1429 65.3964 25.3817 65.3493 25.6224C65.1921 25.5804 65.0346 25.5386 64.8769 25.4971C64.879 25.5067 64.8811 25.5163 64.8832 25.5259C64.9264 25.7024 64.9691 25.8795 65.0114 26.0569C64.2895 25.2334 64.2478 26.2402 64.8808 26.4691C64.4436 26.6193 64.0038 26.7726 63.5727 26.9165C62.6919 26.0477 62.8743 27.482 63.4267 27.8724C63.3949 27.9065 63.3621 27.9417 63.3318 27.974C62.8235 28.0491 62.7783 28.5023 62.282 28.7262C61.7867 28.9492 61.7332 28.8285 61.2097 28.5613C61.1576 28.6683 61.1052 28.7758 61.0525 28.8835C61.8109 30.3731 59.862 28.505 60.069 30.0673C59.1181 29.6617 58.9527 30.6192 58.8166 31.2177C58.8004 31.2877 58.9415 31.4151 58.9292 31.5169C58.8978 31.7638 58.3626 31.9965 58.832 32.3914C58.5798 32.4077 58.3281 32.4233 58.0754 32.4402C58.0603 32.6245 58.045 32.8093 58.0293 32.9944C58.1727 33.1212 58.316 33.248 58.4594 33.3749C57.7743 33.1629 57.6428 33.6872 57.3762 33.7519C57.3222 33.765 57.1186 33.5966 56.9701 33.655C56.7955 33.7224 56.6466 34.0069 56.4518 34.1016C56.6185 34.3542 56.785 34.607 56.9515 34.8598C56.8307 35.2339 56.1713 34.8136 55.9883 34.9289C55.956 34.9494 55.5408 35.4991 55.528 35.5383C55.4243 35.8513 55.9684 36.2291 55.2824 36.788C55.1599 36.8873 54.9061 36.8302 54.8054 36.9296C54.6279 37.1042 54.5107 38.0126 54.8279 38.3735C54.1825 38.201 53.8272 38.9678 53.5389 39.0325C53.4512 39.0513 53.1563 38.8107 52.9481 38.9232C52.778 39.0152 52.7014 39.5596 52.5119 39.6962C52.3101 39.8397 52.0139 39.6921 51.9251 39.7581C51.8414 39.8207 51.9714 40.0626 51.8775 40.1661C51.5797 40.4876 51.0105 40.5035 50.7762 40.7558C50.4375 41.119 50.7142 41.9571 50.6927 42.4919C50.5873 42.5361 50.3975 42.503 50.3246 42.5829C49.4172 43.5689 48.3092 44.6058 47.2958 45.5021C46.826 45.9187 45.0214 46.3925 46.5899 47.2294C46.6729 47.5923 45.1059 48.3095 44.8992 48.527C44.6928 48.7444 44.7675 49.1275 44.6152 49.3065C44.1534 49.8481 43.6536 50.0756 43.2838 50.9006C43.1879 51.1154 43.3039 51.5385 43.2129 51.6348C43.1026 51.7504 42.7229 51.6434 42.5693 51.7829C42.2071 52.1152 41.6834 52.8834 41.3256 53.1951C41.2596 53.2516 41.0059 53.0676 40.8515 53.0951C40.2512 53.1988 39.9148 53.629 40.7248 54.2163C39.8909 54.3059 39.9082 55.0649 39.5488 55.5191C38.7996 56.4639 37.1698 57.9578 36.7883 59.0223C36.555 59.6853 36.8896 59.9812 35.9593 60.4529C35.7521 60.5585 35.5283 60.6379 35.274 60.772C34.6807 61.0817 33.6989 60.9476 34.13 61.962C33.4762 62.3136 33.2717 62.8223 32.2874 62.6531C32.4005 62.8332 32.5138 63.0132 32.6271 63.1931C32.5752 63.2596 32.5235 63.326 32.472 63.3921C32.3088 63.2831 32.1456 63.1741 31.9825 63.065C31.5555 63.4705 31.637 64.5876 31.3053 64.9556C30.8903 65.4172 29.8777 66.3165 29.0937 66.9193C28.7881 67.1587 28.5194 67.351 28.3227 67.4667C27.9429 67.6881 28.234 67.9879 27.4274 67.6088C27.4082 67.7211 27.3895 67.8327 27.3712 67.9438C27.4727 68.1124 27.5745 68.2808 27.6764 68.449C27.3267 68.859 26.6735 69.1624 26.3287 69.5608C25.7126 70.2734 25.1528 71.6982 24.2692 72.197C24.0524 72.3156 23.5522 72.3014 23.4076 72.4745C23.1928 72.7308 23.6099 73.229 23.3457 73.5519C22.8733 74.1257 21.3915 74.7018 20.9872 75.2638C20.8598 75.4385 20.9802 75.6654 20.9101 75.7871C20.6035 76.3172 20.2694 76.683 20.2071 77.341C19.3679 77.3983 18.7836 76.8637 18.0358 76.5201C17.4858 76.2368 16.0556 75.8337 15.5757 75.605C15.2388 75.4398 14.9436 75.0205 14.5644 74.8511C14.8932 73.8 15.3877 73.8103 16.236 73.6763C16.9602 72.7678 17.6762 71.9006 18.407 71.0175C18.6426 71.0866 18.8763 71.1579 19.1128 71.2259C19.1132 71.2262 19.1135 71.2266 19.1139 71.2269C19.6018 71.0568 19.274 70.5563 19.3345 70.2871C19.8475 67.8203 23.356 65.2061 25.1338 63.4401C25.1681 63.4062 25.2018 63.3724 25.2349 63.3389C25.601 62.9676 26.5166 61.4706 27.037 61.4287C27.169 61.4218 27.4447 61.6302 27.5213 61.5659C27.9574 60.7603 28.3919 59.9568 28.8395 59.139C30.4568 58.1136 31.3839 56.3943 32.5523 54.9464C35.7101 51.0323 38.8034 47.1263 42.1434 43.4823C42.7895 42.7782 43.4003 41.7003 44.1454 41.1112C44.4561 40.8649 44.9781 41.1104 45.0096 40.4534C45.1247 40.5484 45.2398 40.6433 45.3549 40.7382C45.5168 40.2845 45.4529 39.8455 45.7605 39.4469C46.0201 39.1115 46.7438 38.263 47.0356 38.0203C47.1856 37.8944 47.346 38.1333 47.4648 37.9974C47.667 37.7629 47.8147 37.0167 48.1001 36.6955C48.3575 36.4058 49.0293 36.133 49.1906 35.8815C49.7809 34.9691 50.1983 33.784 51.0506 33.018C51.2845 32.8095 51.8263 32.7441 51.8844 32.6637C51.9974 32.5052 51.7735 32.229 51.8259 32.1023C52.0901 31.4627 53.0877 30.9697 53.5258 30.503C54.9638 28.9706 56.3307 27.2089 57.7731 25.693C58.6859 24.7329 60.0998 23.0624 61.1132 22.3298C61.1676 22.2909 61.2234 22.2818 61.279 22.2871C61.4464 22.2988 61.6078 22.4398 61.7205 22.3145C61.8873 22.1289 61.7832 21.8565 61.8443 21.7573C62.2524 21.0836 63.261 19.5805 63.9516 19.2195C64.0884 19.1454 64.3816 19.2711 64.4392 19.2066C64.4687 19.1744 64.3838 18.9627 64.4599 18.8486C65.1367 17.8357 65.817 17.2763 66.6808 16.4567C68.3329 14.8939 69.8558 12.7302 71.8347 11.1757C72.2667 10.838 72.9524 11.0315 73.0008 10.9812C73.1258 10.8571 72.9384 10.4874 73.1542 10.179C73.5532 9.58765 74.4204 9.0539 75.0042 8.73018C75.4292 8.48267 75.8325 8.23164 76.1163 7.93305C76.462 7.57118 76.7214 6.76356 77.0605 6.38474C77.327 6.08416 78.2305 5.69293 78.2662 5.40003C78.2837 5.22452 78.084 4.83607 78.1724 4.71086ZM72.1731 18.3258C71.7213 17.7955 71.6313 18.7222 72.088 18.783C72.1883 18.7992 72.2918 18.4618 72.1731 18.3258ZM48.2271 43.1182C48.3796 43.2446 48.5321 43.3709 48.6847 43.4972C48.6873 43.3702 48.6899 43.2431 48.6924 43.1162C48.5674 43.0778 48.4423 43.0395 48.3172 43.0012C48.2872 43.0402 48.2571 43.0792 48.2271 43.1182Z" fill="#AB7442"/>
<path d="M91.9941 4.71086C91.9134 4.5984 91.6106 4.7082 91.4712 4.63356C90.8676 4.31567 90.5457 4.32554 89.8877 4.08484C89.0972 3.55816 85.1932 2.53515 85.3351 4.51075C85.3351 4.51079 85.3351 4.51084 85.3351 4.51088C85.335 4.52855 85.3353 4.54643 85.3358 4.56452C85.3492 4.90705 85.5777 5.28613 85.5902 5.67619C85.6017 6.06597 85.5066 8.56921 85.646 8.72176C85.8392 8.90822 86.5321 8.42669 86.6981 8.5304C86.7886 8.58577 86.8175 8.84488 86.9208 8.93791C87.2571 9.24296 87.5766 9.23968 87.6431 10.0116C87.9738 9.83467 88.3212 9.67228 88.6737 9.51599C88.8128 9.79114 89.3974 9.67315 89.5266 9.79277C89.6276 9.88735 89.5491 10.1477 89.6604 10.2408C89.7848 10.3468 90.1525 10.266 90.3761 10.4762C90.7433 10.8195 90.4278 11.421 90.6229 11.6633C90.832 11.9193 91.4356 11.8958 91.6353 12.3218C91.6342 12.4111 91.6335 12.5006 91.6331 12.5903C91.5082 12.7076 91.3832 12.8248 91.2583 12.9421C91.3801 13.1209 91.6532 12.8921 91.8081 12.9907C91.95 13.0808 91.9319 13.2982 91.9731 13.4328C91.9874 13.4749 92.0065 13.5088 92.0366 13.5287C92.1435 13.5989 92.4175 13.4681 92.5205 13.5581C92.6681 13.6863 92.4161 13.9706 92.4552 14.0838C92.4776 14.1271 92.8888 14.697 92.9209 14.7325C93.1473 14.9348 93.5033 14.5616 93.7296 14.6954C94.3711 15.0849 94.6825 15.9518 95.0959 16.5741C95.2875 16.859 95.5501 17.0766 95.8438 17.2538C96.408 15.9512 97.9598 16.0524 96.1856 17.1976C96.6678 17.266 96.443 17.8324 96.7646 18.0268C96.964 18.1431 97.2855 18.0629 97.5104 18.3065C97.9046 18.7362 97.7558 19.761 98.9444 18.8765C99.2276 19.5516 100.036 19.634 99.2556 20.7011C99.3217 20.8877 100.201 20.697 100.413 20.7705C100.617 20.8433 101.87 21.6852 102.045 21.8486C102.218 22.0079 102.519 22.3054 102.576 22.5363C102.646 22.8227 101.76 23.8495 103.232 23.1273C103.502 23.6136 103.649 23.7083 104.116 23.9512C104.2 23.9951 104.38 23.8459 104.416 23.8846C104.487 23.9636 104.487 24.2213 104.597 24.3747C104.777 24.6249 105.262 24.429 104.681 24.906C104.725 25.1429 104.77 25.3817 104.817 25.6224C104.974 25.5804 105.132 25.5386 105.29 25.4971C105.287 25.5067 105.285 25.5163 105.283 25.5259C105.24 25.7024 105.197 25.8795 105.155 26.0569C105.877 25.2334 105.919 26.2402 105.286 26.4691C105.723 26.6193 106.163 26.7726 106.594 26.9165C107.475 26.0477 107.292 27.482 106.74 27.8724C106.772 27.9065 106.804 27.9417 106.835 27.974C107.343 28.0491 107.388 28.5023 107.884 28.7262C108.38 28.9492 108.433 28.8285 108.957 28.5613C109.009 28.6683 109.061 28.7758 109.114 28.8835C108.356 30.3731 110.305 28.505 110.097 30.0673C111.048 29.6617 111.214 30.6192 111.35 31.2177C111.366 31.2877 111.225 31.4151 111.237 31.5169C111.269 31.7638 111.804 31.9965 111.334 32.3914C111.587 32.4077 111.838 32.4233 112.091 32.4402C112.106 32.6245 112.122 32.8093 112.137 32.9944C111.994 33.1212 111.85 33.248 111.707 33.3749C112.392 33.1629 112.524 33.6872 112.79 33.7519C112.844 33.765 113.048 33.5966 113.196 33.655C113.371 33.7224 113.52 34.0069 113.715 34.1016C113.548 34.3542 113.381 34.607 113.215 34.8598C113.336 35.2339 113.995 34.8136 114.178 34.9289C114.211 34.9494 114.626 35.4991 114.638 35.5383C114.742 35.8513 114.198 36.2291 114.884 36.788C115.007 36.8873 115.26 36.8302 115.361 36.9296C115.539 37.1042 115.656 38.0126 115.339 38.3735C115.984 38.201 116.339 38.9678 116.628 39.0325C116.715 39.0513 117.01 38.8107 117.218 38.9232C117.389 39.0152 117.465 39.5596 117.655 39.6962C117.856 39.8397 118.153 39.6921 118.241 39.7581C118.325 39.8207 118.195 40.0626 118.289 40.1661C118.587 40.4876 119.156 40.5035 119.39 40.7558C119.729 41.119 119.452 41.9571 119.474 42.4919C119.579 42.5361 119.769 42.503 119.842 42.5829C120.749 43.5689 121.857 44.6058 122.871 45.5021C123.34 45.9187 125.145 46.3925 123.577 47.2294C123.494 47.5923 125.061 48.3095 125.267 48.527C125.474 48.7444 125.399 49.1275 125.551 49.3065C126.013 49.8481 126.513 50.0756 126.883 50.9006C126.979 51.1154 126.863 51.5385 126.954 51.6348C127.064 51.7504 127.444 51.6434 127.597 51.7829C127.959 52.1152 128.483 52.8834 128.841 53.1951C128.907 53.2516 129.161 53.0676 129.315 53.0951C129.915 53.1988 130.252 53.629 129.442 54.2163C130.276 54.3059 130.258 55.0649 130.618 55.5191C131.367 56.4639 132.997 57.9578 133.378 59.0223C133.611 59.6853 133.277 59.9812 134.207 60.4529C134.414 60.5585 134.638 60.6379 134.893 60.772C135.486 61.0817 136.468 60.9476 136.037 61.962C136.69 62.3136 136.895 62.8223 137.879 62.6531C137.766 62.8332 137.653 63.0132 137.539 63.1931C137.591 63.2596 137.643 63.326 137.695 63.3921C137.858 63.2831 138.021 63.1741 138.184 63.065C138.611 63.4705 138.53 64.5876 138.861 64.9556C139.276 65.4172 140.289 66.3165 141.073 66.9193C141.378 67.1587 141.647 67.351 141.844 67.4667C142.224 67.6881 141.932 67.9879 142.739 67.6088C142.758 67.7211 142.777 67.8327 142.795 67.9438C142.694 68.1124 142.592 68.2808 142.49 68.449C142.84 68.859 143.493 69.1624 143.838 69.5608C144.454 70.2734 145.014 71.6982 145.897 72.197C146.114 72.3156 146.614 72.3014 146.759 72.4745C146.974 72.7308 146.557 73.229 146.821 73.5519C147.293 74.1257 148.775 74.7018 149.179 75.2638C149.307 75.4385 149.186 75.6654 149.256 75.7871C149.563 76.3172 149.897 76.683 149.959 77.341C150.799 77.3983 151.383 76.8637 152.131 76.5201C152.681 76.2368 154.111 75.8337 154.591 75.605C154.928 75.4398 155.223 75.0205 155.602 74.8511C155.273 73.8 154.779 73.8103 153.931 73.6763C153.206 72.7678 152.49 71.9006 151.759 71.0175C151.524 71.0866 151.29 71.1579 151.054 71.2259C151.053 71.2262 151.053 71.2266 151.053 71.2269C150.565 71.0568 150.892 70.5563 150.832 70.2871C150.319 67.8203 146.81 65.2061 145.033 63.4401C144.998 63.4062 144.965 63.3724 144.932 63.3389C144.566 62.9676 143.65 61.4706 143.129 61.4287C142.997 61.4218 142.722 61.6302 142.645 61.5659C142.209 60.7603 141.775 59.9568 141.327 59.139C139.71 58.1136 138.783 56.3943 137.614 54.9464C134.456 51.0323 131.363 47.1263 128.023 43.4823C127.377 42.7782 126.766 41.7003 126.021 41.1112C125.71 40.8649 125.188 41.1104 125.157 40.4534C125.042 40.5484 124.927 40.6433 124.812 40.7382C124.65 40.2845 124.714 39.8455 124.406 39.4469C124.146 39.1115 123.423 38.263 123.131 38.0203C122.981 37.8944 122.821 38.1333 122.702 37.9974C122.499 37.7629 122.352 37.0167 122.066 36.6955C121.809 36.4058 121.137 36.133 120.976 35.8815C120.386 34.9691 119.968 33.784 119.116 33.018C118.882 32.8095 118.34 32.7441 118.282 32.6637C118.169 32.5052 118.393 32.229 118.341 32.1023C118.076 31.4627 117.079 30.9697 116.641 30.503C115.203 28.9706 113.836 27.2089 112.393 25.693C111.481 24.7329 110.067 23.0624 109.053 22.3298C108.999 22.2909 108.943 22.2818 108.888 22.2871C108.72 22.2988 108.559 22.4398 108.446 22.3145C108.279 22.1289 108.383 21.8565 108.322 21.7573C107.914 21.0836 106.906 19.5805 106.215 19.2195C106.078 19.1454 105.785 19.2711 105.727 19.2066C105.698 19.1744 105.783 18.9627 105.707 18.8486C105.03 17.8357 104.35 17.2763 103.486 16.4567C101.834 14.8939 100.311 12.7302 98.3318 11.1757C97.8998 10.838 97.2141 11.0315 97.1657 10.9812C97.0407 10.8571 97.2281 10.4874 97.0123 10.179C96.6133 9.58765 95.7461 9.0539 95.1623 8.73018C94.7373 8.48267 94.334 8.23164 94.0502 7.93305C93.7045 7.57118 93.4451 6.76356 93.106 6.38474C92.8395 6.08416 91.936 5.69293 91.9003 5.40003C91.8828 5.22452 92.0825 4.83607 91.9941 4.71086ZM97.9934 18.3258C98.4452 17.7955 98.5352 18.7222 98.0785 18.783C97.9782 18.7992 97.8747 18.4618 97.9934 18.3258ZM121.939 43.1182C121.787 43.2446 121.634 43.3709 121.482 43.4972C121.479 43.3702 121.477 43.2431 121.474 43.1162C121.599 43.0778 121.724 43.0395 121.849 43.0012C121.879 43.0402 121.909 43.0792 121.939 43.1182Z" fill="#AB7442"/>
<rect x="4" y="75" width="166" height="292" stroke="white" stroke-width="8"/>
<circle cx="87" cy="14" r="13" fill="#B1B3B6" stroke="#787E88" stroke-width="2"/>
<path d="M96 23.5L78.5 3.5" stroke="#787E88" stroke-width="3"/>
</svg>
